<svg width="18" height="16" viewBox="0 0 18 16" fill="none" xmlns="http://www.w3.org/2000/svg">
<g clip-path="url(#clip0_146_21)">
<path d="M17.9884 7.79989C17.9884 7.4839 17.8662 7.18094 17.6486 6.9573C17.4312 6.73395 17.1361 6.60839 16.8285 6.60839H4.10847L8.823 2.09212C9.06049 1.88007 9.20399 1.57759 9.22001 1.2545C9.23627 0.931633 9.12411 0.615657 8.90911 0.379267C8.6941 0.143135 8.39492 0.00676088 8.07994 0.00160282C7.76521 -0.0033115 7.46194 0.123231 7.23976 0.352482L0.370982 6.92713C0.135892 7.15245 0.00244141 7.4682 0.00244141 7.79846C0.00244141 8.12895 0.135892 8.44448 0.370982 8.6698L7.23976 15.2476C7.54277 15.538 7.97372 15.6405 8.37002 15.5162C8.76655 15.3918 9.06811 15.0596 9.16166 14.6448C9.25516 14.2298 9.12602 13.7954 8.82301 13.5047L4.10848 8.99165H16.8285C17.136 8.99165 17.4312 8.86608 17.6486 8.64248C17.8662 8.41912 17.9884 8.11616 17.9884 7.79989Z" fill="white"/>
</g>
<defs>
<clipPath id="clip0_146_21">
<rect width="18" height="15.6" fill="white"/>
</clipPath>
</defs>
</svg>
